:SAMPLES-PER-SECOND 30
:FULLY-SPECIFIED
:DEGREES
745
root  48.6144 37.9096 15.9712 178.179 54.8857 178.034
RightUpLeg  -25.3785 -20.9674 -7.00602
RightLeg  68.3481 -1.01914 -3.59452
RightFoot  7.48329 -0.848585 5.41853
RightToes  0.00048216 0.542163 -0.142577
Spine  33.1085 0.616421 1.72588
Spine1  12.5398 3.6342 -7.34166
HEad  5.11764 5.35019 -11.1099
LeftShoulder1  9.29341 -15.5633 -42.334
LeftArm  -15.5255 6.40127 -22.0526
LeftForeArm  33.4521 -28.96 -4.44862
LeftHand  -0.25398 0.0180481 5.50724
RightShoulder  4.97225 10.3417 29.9473
RightArm  -12.6075 25.9669 28.7684
RightForeArm  3.27906 11.699 6.61666
RightHand  -1.04059 1.95606 -16.5848
LeftUpLeg  -24.0081 32.5934 -19.0122
LeftLeg  23.6022 7.93216 4.1178
LeftFoot  -9.27716 -0.28154 18.6517
LeftToes  1.06245e-005 4.65856e-005 -8.18504e-006
746
root  49.4707 38.2238 16.4794 179.467 51.1247 178.539
RightUpLeg  -28.0393 -17.6078 -7.8363
RightLeg  60.9572 -2.51695 -5.32536
RightFoot  4.68823 -0.710121 5.24534
RightToes  0.00048216 0.542163 -0.142577
Spine  36.3514 -0.0230951 2.48909
Spine1  12.863 3.16987 -7.02672
HEad  2.71212 3.58387 -11.6094
LeftShoulder1  9.2849 -16.1027 -41.0381
LeftArm  -16.4344 2.18179 -23.5956
LeftForeArm  34.3954 -32.5459 -5.22692
LeftHand  -0.25398 0.0180481 5.50724
RightShoulder  4.75132 10.5044 27.9021
RightArm  -13.7567 30.0418 30.4398
RightForeArm  6.03966 9.47113 6.58796
RightHand  -1.17044 2.63533 -17.0746
LeftUpLeg  -23.1743 29.9307 -17.1134
LeftLeg  22.9187 6.7407 3.45679
LeftFoot  -8.03848 -0.441615 16.8492
LeftToes  1.06245e-005 4.65856e-005 -8.18504e-006
747
root  50.3798 38.5076 17.0349 -178.976 46.8757 178.686
RightUpLeg  -29.1929 -15.2597 -9.10263
RightLeg  50.0809 -5.92052 -7.81373
RightFoot  3.20598 -0.478714 3.9264
RightToes  0.00048216 0.542163 -0.142577
Spine  38.9001 -0.589042 3.02062
Spine1  13.0006 2.60862 -6.34236
HEad  1.00893 1.84517 -11.672
LeftShoulder1  9.31555 -16.7519 -39.7407
LeftArm  -16.2452 -2.54268 -24.9069
LeftForeArm  33.1638 -34.4958 -5.77653
LeftHand  -0.25398 0.0180481 5.50724
RightShoulder  4.47441 10.4544 25.9757
RightArm  -14.1396 33.8801 32.016
RightForeArm  6.20495 7.40791 6.54477
RightHand  -1.36324 3.4266 -18.1232
LeftUpLeg  -22.8922 26.793 -15.7898
LeftLeg  21.6134 5.64478 2.79711
LeftFoot  -6.56517 -0.640462 16.1767
LeftToes  1.06245e-005 4.65856e-005 -8.18504e-006
748
root  51.4114 38.7134 17.6274 -177.333 42.5159 178.098
RightUpLeg  -29.4181 -13.4023 -10.9581
RightLeg  37.1706 -9.12093 -7.69454
RightFoot  1.91566 -0.478954 4.25115
RightToes  0.00048216 0.542163 -0.142577
Spine  41.0922 -0.739716 2.82548
Spine1  12.655 2.10402 -5.23423
HEad  -0.84676 -0.203326 -10.8085
LeftShoulder1  9.35709 -17.2305 -38.9143
LeftArm  -15.4017 -8.25591 -25.9557
LeftForeArm  31.4002 -34.8214 -5.96161
LeftHand  -0.25398 0.0180481 5.50724
RightShoulder  4.20365 10.3102 24.2764
RightArm  -14.3428 37.3248 33.1089
RightForeArm  5.03096 5.83387 6.47686
RightHand  -1.46785 3.83086 -18.6555
LeftUpLeg  -23.5487 23.1483 -14.9939
LeftLeg  20.5957 4.49138 2.19835
LeftFoot  -5.26309 -0.788769 15.3719
LeftToes  1.06245e-005 4.65856e-005 -8.18504e-006
749
root  52.5776 38.8102 18.2123 -175.663 38.2222 177.376
RightUpLeg  -28.8247 -10.9265 -13.1353
RightLeg  24.2859 -7.83855 -4.15028
RightFoot  0.335032 -0.626843 6.16167
RightToes  0.00048216 0.542163 -0.142577
Spine  43.5182 -0.77334 2.60129
Spine1  11.9658 1.84616 -4.35422
HEad  -3.1136 -2.54569 -9.44221
LeftShoulder1  9.41674 -17.6177 -38.3923
LeftArm  -14.5426 -15.0665 -27.0194
LeftForeArm  30.9368 -33.6816 -5.70214
LeftHand  -0.25398 0.0180481 5.50724
RightShoulder  3.89063 10.0673 22.4155
RightArm  -15.4364 40.3906 34.1954
RightForeArm  4.79015 4.61569 6.09525
RightHand  -1.48663 3.94528 -18.6636
LeftUpLeg  -25.0412 19.0663 -13.8879
LeftLeg  20.988 3.70589 1.90714
LeftFoot  -4.44981 -0.785924 13.4264
LeftToes  1.06245e-005 4.65856e-005 -8.18504e-006
750
root  53.8144 38.7836 18.7827 -174.003 33.3758 177.103
RightUpLeg  -27.8364 -8.44074 -14.726
RightLeg  14.7489 -1.73776 -0.993159
RightFoot  -0.339521 -0.79869 8.22587
RightToes  0.00048216 0.542163 -0.142577
Spine  46.0178 -1.43496 3.65521
Spine1  11.768 1.72469 -4.2399
HEad  -6.0412 -5.05871 -7.57027
LeftShoulder1  9.50461 -18.4762 -37.0867
LeftArm  -14.127 -22.4915 -28.5518
LeftForeArm  31.951 -31.2989 -5.06667
LeftHand  -0.25398 0.0180481 5.50724
RightShoulder  3.55581 9.57524 20.8379
RightArm  -17.2927 43.4509 34.9247
RightForeArm  5.58336 3.49131 5.40499
RightHand  -1.48158 3.98491 -18.528
LeftUpLeg  -26.9607 14.0923 -11.9532
LeftLeg  22.6887 3.50002 1.94849
LeftFoot  -4.06068 -0.705564 11.43
LeftToes  1.06245e-005 4.65856e-005 -8.18504e-006
751
root  55.0592 38.6339 19.3843 -172.217 27.6272 177.149
RightUpLeg  -28.0839 -9.37529 -14.1942
RightLeg  11.3984 4.94645 0.189984
RightFoot  1.38228 -1.04669 9.4457
RightToes  0.00048216 0.542163 -0.142577
Spine  48.4541 -2.84207 5.93552
Spine1  11.6819 1.23159 -4.03645
HEad  -9.23391 -7.2799 -5.53176
LeftShoulder1  9.45178 -19.638 -34.7414
LeftArm  -13.9345 -29.7132 -30.6116
LeftForeArm  33.1558 -28.373 -4.33097
LeftHand  -0.25398 0.0180481 5.50724
RightShoulder  3.25504 9.06617 19.4607
RightArm  -18.8938 46.5915 34.8415
RightForeArm  6.1484 2.30997 4.86922
RightHand  -1.44692 3.94801 -18.1749
LeftUpLeg  -29.5872 8.61116 -9.56117
LeftLeg  25.1093 3.16372 1.95302
LeftFoot  -3.84315 -0.636061 10.0271
LeftToes  1.06245e-005 4.65856e-005 -8.18504e-006
752
root  56.2949 38.361 20.0252 -170.162 22.0607 177.284
RightUpLeg  -30.6028 -12.7841 -12.4749
RightLeg  14.0332 6.75529 1.80115
RightFoot  4.28798 -1.32738 9.87354
RightToes  0.00048216 0.542163 -0.142577
Spine  50.5829 -4.28789 8.84421
Spine1  11.1956 1.07451 -4.14139
HEad  -12.69 -9.58168 -2.96177
LeftShoulder1  9.35403 -21.3761 -31.4695
LeftArm  -13.654 -36.6842 -33.215
LeftForeArm  33.5655 -24.9492 -3.59651
LeftHand  -0.25398 0.0180481 5.50724
RightShoulder  3.12934 8.80277 18.9527
RightArm  -20.2023 49.5644 32.2387
RightForeArm  5.42251 1.19285 4.8786
RightHand  -1.35811 3.73264 -17.477
LeftUpLeg  -33.6384 5.16375 -7.50209
LeftLeg  28.4816 2.45076 1.78339
LeftFoot  -3.69207 -0.551315 8.56848
LeftToes  1.06245e-005 4.65856e-005 -8.18504e-006
753
root  57.4879 38.0902 20.641 -167.768 18.2445 177.659
RightUpLeg  -35.1329 -18.0813 -8.47513
RightLeg  18.7652 7.36823 3.00651
RightFoot  5.71154 -1.37689 9.42335
RightToes  0.00048216 0.542163 -0.142577
Spine  52.9675 -5.19089 10.9136
Spine1  10.5562 1.47337 -4.538
HEad  -17.4627 -10.834 -0.468047
LeftShoulder1  9.25396 -22.7337 -29.0729
LeftArm  -14.183 -43.8978 -34.4767
LeftForeArm  32.9967 -21.6476 -3.22798
LeftHand  -0.25398 0.0180481 5.50724
RightShoulder  3.07834 9.27765 17.5204
RightArm  -22.3586 53.0682 28.6133
RightForeArm  4.74848 -0.270225 4.83544
RightHand  -1.28 3.51272 -16.8927
LeftUpLeg  -38.6385 6.21774 -6.80914
LeftLeg  31.9037 2.77595 2.22954
LeftFoot  -3.01547 -0.500571 7.12664
LeftToes  1.06245e-005 4.65856e-005 -8.18504e-006
754
root  58.5992 37.9615 21.167 -165.008 16.1887 178.355
RightUpLeg  -40.1713 -20.97 -3.62217
RightLeg  22.3407 7.59822 3.16267
RightFoot  4.78706 -1.0365 7.51474
RightToes  0.00048216 0.542163 -0.142577
Spine  55.9383 -5.58218 11.6549
Spine1  10.0626 2.10468 -4.95766
HEad  -22.4881 -10.6365 0.612119
LeftShoulder1  9.27468 -23.5148 -28.1045
LeftArm  -17.2214 -51.0353 -32.7795
LeftForeArm  31.8612 -19.146 -3.41894
LeftHand  -0.25398 0.0180481 5.50724
RightShoulder  2.98102 10.2038 14.9431
RightArm  -26.3102 57.8017 24.7017
RightForeArm  5.33129 -2.19218 4.28303
RightHand  -1.28395 3.60887 -16.7694
LeftUpLeg  -43.5415 11.3408 -8.55407
LeftLeg  33.6278 5.37011 4.18178
LeftFoot  -1.84696 -0.538285 6.59528
LeftToes  1.06245e-005 4.65856e-005 -8.18504e-006
755
root  59.6393 37.9358 21.5713 -161.826 14.3915 178.817
RightUpLeg  -44.5857 -21.3154 0.0762607
RightLeg  24.1006 6.7104 3.05631
RightFoot  3.53303 -0.646357 5.14668
RightToes  0.00048216 0.542163 -0.142577
Spine  58.5261 -5.88305 11.817
Spine1  9.94647 2.6429 -5.54114
HEad  -27.1458 -9.94681 1.07839
LeftShoulder1  9.27857 -24.7287 -26.5691
LeftArm  -22.7158 -57.3141 -28.9615
LeftForeArm  29.8092 -17.4491 -3.47914
LeftHand  -0.25398 0.0180481 5.50724
RightShoulder  2.85058 10.7239 13.0677
RightArm  -32.5892 63.1863 18.4473
RightForeArm  5.74956 -3.67739 3.67616
RightHand  -1.34583 4.048 -16.7778
LeftUpLeg  -48.1821 17.6475 -13.2431
LeftLeg  32.9241 9.16559 6.6741
LeftFoot  -1.47959 -0.613588 7.21409
LeftToes  1.06245e-005 4.65856e-005 -8.18504e-006
